<?xml version="1.0" encoding="utf-8"?>
<!DOCTYPE svg PUBLIC "-//W3C//DTD SVG 1.0//EN" "http://www.w3.org/TR/2001/REC-SVG-20010904/DTD/svg10.dtd">
<svg version="1.0" xmlns="http://www.w3.org/2000/svg" width="64px" height="64px" viewBox="0 0 64 64" preserveAspectRatio="xMidYMid meet">
 <g fill="#000000">
  <path d="M2.2 61.7 c-1.8 -1.9 -2.2 -3.5 -2.2 -9.5 l0 -7.2 5 0 5 0 0 -13 0 -13 -5 0 -5 0 0 -7.3 c0 -6.4 0.3 -7.6 2.3 -9.5 1.9 -1.8 3.5 -2.2 9.5 -2.2 l7.2 0 0 5.4 0 5.5 -3.7 0.3 c-3.5 0.3 -3.8 0.6 -4.1 3.6 l-0.3 3.2 8.5 -5 c11.3 -6.7 13.9 -6.7 25.2 0 l8.5 5 -0.3 -3.2 c-0.3 -3 -0.6 -3.3 -4 -3.6 l-3.8 -0.3 0 -5.5 0 -5.4 7.3 0 c6.4 0 7.6 0.3 9.5 2.3 1.8 1.9 2.2 3.5 2.2 9.5 l0 7.2 -5 0 -5 0 0 13 0 13 5 0 5 0 0 7.3 c0 6.4 -0.3 7.6 -2.3 9.5 -1.9 1.8 -3.5 2.2 -9.5 2.2 l-7.2 0 0 -5.4 0 -5.5 3.8 -0.3 c3.4 -0.3 3.7 -0.6 4 -3.6 l0.3 -3.2 -8.5 5 c-6.5 3.8 -9.4 5 -12.6 5 -3.2 0 -6.1 -1.2 -12.6 -5 l-8.5 -5 0.3 3.2 c0.3 3 0.6 3.3 4.1 3.6 l3.7 0.3 0 5.5 0 5.4 -7.3 0 c-6.4 0 -7.6 -0.3 -9.5 -2.3z m22.2 -26.2 c-1.3 -0.9 -2 -1 -2.3 -0.3 -0.2 0.6 0.5 1.7 1.5 2.5 1.3 0.9 2 1 2.2 0.3 0.2 -0.6 -0.4 -1.7 -1.4 -2.5z m17.6 0 c0 -1.3 -0.3 -1.3 -2 -0.3 -1.1 0.7 -2 1.9 -2 2.6 0 1 0.5 1 2 0.2 1.1 -0.6 2 -1.7 2 -2.5z m-8.5 -12.5 c0.3 -0.5 -0.3 -1 -1.5 -1 -1.2 0 -1.8 0.5 -1.5 1 0.3 0.6 1 1 1.5 1 0.5 0 1.2 -0.4 1.5 -1z"/>
 </g>
 <g fill="#ffffff">
  <path d="M0 32 l0 -32 32 0 32 0 0 32 0 32 -32 0 -32 0 0 -32z m16 26.6 c0 -2.1 -0.5 -2.5 -3.7 -2.8 -3.6 -0.3 -3.8 -0.5 -4.1 -4 -0.3 -3.3 -0.7 -3.8 -2.8 -3.8 -2.2 0 -2.4 0.4 -2.4 4.2 0 5.8 2.9 8.8 8.7 8.8 3.9 0 4.3 -0.2 4.3 -2.4z m42.7 0.2 c1.7 -1.6 2.3 -3.2 2.3 -6.5 0 -3.9 -0.2 -4.3 -2.4 -4.3 -2.1 0 -2.5 0.5 -2.8 3.8 -0.3 3.5 -0.5 3.7 -4 4 -3.3 0.3 -3.8 0.7 -3.8 2.8 0 2.2 0.4 2.4 4.2 2.4 2.9 0 4.9 -0.7 6.5 -2.2z m-18.4 -10 c11.2 -6.5 10.7 -5.7 10.7 -16.8 0 -8 -0.3 -9.9 -1.7 -11.2 -2.8 -2.2 -16 -9.8 -17.3 -9.8 -1.3 0 -14.5 7.6 -17.2 9.8 -2.5 2.1 -2.6 20.3 -0.3 22.2 2.9 2.4 16 9.9 17.3 9.9 0.8 0.1 4.6 -1.8 8.5 -4.1z m-32.1 -36.5 c0.3 -3.6 0.5 -3.8 4.1 -4.1 3.2 -0.3 3.7 -0.7 3.7 -2.8 0 -2.2 -0.4 -2.4 -4.2 -2.4 -5.8 0 -8.8 2.9 -8.8 8.7 0 3.9 0.2 4.3 2.4 4.3 2.1 0 2.5 -0.5 2.8 -3.7z m52.8 -0.5 c0 -5.8 -2.9 -8.8 -8.7 -8.8 -3.9 0 -4.3 0.2 -4.3 2.4 0 2.1 0.5 2.5 3.8 2.8 3.5 0.3 3.7 0.5 4 4.1 0.3 3.2 0.7 3.7 2.8 3.7 2.2 0 2.4 -0.4 2.4 -4.2z"/>
  <path d="M23.3 42.4 c-4.3 -2.5 -4.3 -2.5 -4.3 -8.5 0 -3.2 0.2 -5.9 0.5 -5.9 0.2 0 2.5 1.2 5 2.7 l4.5 2.8 0 5.7 c0 3.2 -0.3 5.8 -0.7 5.8 -0.5 0 -2.7 -1.2 -5 -2.6z"/>
  <path d="M35 39.2 l0 -5.7 4.5 -2.8 c2.5 -1.5 4.8 -2.7 5 -2.7 0.3 0 0.5 2.7 0.5 6 l0 5.9 -4.3 2.6 c-2.4 1.4 -4.7 2.5 -5 2.5 -0.4 0 -0.7 -2.6 -0.7 -5.8z"/>
  <path d="M27 26.1 c-2.5 -1.5 -4.3 -3.2 -4.1 -3.7 0.1 -0.5 2.3 -2 4.7 -3.3 l4.4 -2.4 4.4 2.4 c2.4 1.3 4.5 2.9 4.6 3.4 0.2 0.9 -7.6 6.3 -9 6.3 -0.3 0 -2.5 -1.2 -5 -2.7z"/>
 </g>
</svg>